<svg width="85" height="82" viewBox="0 0 85 82" fill="none" xmlns="http://www.w3.org/2000/svg">
<g clip-path="url(#clip0_1_2)">
<path d="M50.4688 7.6875C50.4688 3.44336 46.8994 0 42.5 0C38.1006 0 34.5312 3.44336 34.5312 7.6875C34.5312 11.9316 38.1006 15.375 42.5 15.375C46.8994 15.375 50.4688 11.9316 50.4688 7.6875ZM50.4688 74.3125C50.4688 70.0684 46.8994 66.625 42.5 66.625C38.1006 66.625 34.5312 70.0684 34.5312 74.3125C34.5312 78.5566 38.1006 82 42.5 82C46.8994 82 50.4688 78.5566 50.4688 74.3125ZM7.96875 48.6875C12.3682 48.6875 15.9375 45.2441 15.9375 41C15.9375 36.7559 12.3682 33.3125 7.96875 33.3125C3.56934 33.3125 0 36.7559 0 41C0 45.2441 3.56934 48.6875 7.96875 48.6875ZM85 41C85 36.7559 81.4307 33.3125 77.0312 33.3125C72.6318 33.3125 69.0625 36.7559 69.0625 41C69.0625 45.2441 72.6318 48.6875 77.0312 48.6875C81.4307 48.6875 85 45.2441 85 41ZM23.7236 69.9883C26.8281 66.9934 26.8281 62.1246 23.7236 59.1137C20.6191 56.1027 15.5723 56.1188 12.4512 59.1137C9.33008 62.1086 9.34668 66.9773 12.4512 69.9883C15.5557 72.9992 20.6025 72.9832 23.7236 69.9883ZM23.7236 22.8703C26.8281 19.8754 26.8281 15.0066 23.7236 11.9957C20.6191 8.98477 15.5557 9.00078 12.4512 12.0117C9.34668 15.0227 9.34668 19.8754 12.4512 22.8863C15.5557 25.8973 20.6025 25.8812 23.7236 22.8863V22.8703ZM61.2764 69.9883C64.3809 72.9832 69.4277 72.9832 72.5488 69.9883C75.6699 66.9934 75.6533 62.1246 72.5488 59.1137C69.4443 56.1027 64.3975 56.1188 61.2764 59.1137C58.1553 62.1086 58.1719 66.9773 61.2764 69.9883Z" fill="#FF0000"/>
</g>
<defs>
<clipPath id="clip0_1_2">
<rect width="85" height="82" fill="white"/>
</clipPath>
</defs>
</svg>
